<svg xmlns="http://www.w3.org/2000/svg" width="143.06" height="39.73" viewBox="0 0 143.06 39.73"><title>Sterling Logo</title><path d="M60.69,26.8a4.34,4.34,0,0,1-2.3.5,4.22,4.22,0,0,1-3.3-1.4,5.92,5.92,0,0,1-1.4-3.7s0-.3.1-.4h14.1c0-3.7-.8-6.8-2.4-8.8a8.66,8.66,0,0,0-7.1-3.1,10.88,10.88,0,0,0-4.2.7,8.74,8.74,0,0,0-3.1,2.2,8.34,8.34,0,0,0-1.8,3.2,15.21,15.21,0,0,0-.5,4.4c0,7.4,3.1,11.1,9.9,11.1a9.31,9.31,0,0,0,5.6-1.7,8.48,8.48,0,0,0,3.3-4.5h-5.4A3.61,3.61,0,0,1,60.69,26.8Zm-5.5-11.5a4,4,0,0,1,2.9-1.2,4.53,4.53,0,0,1,1.6.3,4.19,4.19,0,0,1,1.4.9,5.6,5.6,0,0,1,1,1.5,6.47,6.47,0,0,1,.4,2v.1h-8.6v-.1A4.84,4.84,0,0,1,55.19,15.3Z" transform="translate(-2.24 -1)" fill="#333f48"/><rect x="83.76" y="0.9" width="5.9" height="30" fill="#333f48"/><path d="M25.14,18.1a7,7,0,0,1,1.1,4,9.16,9.16,0,0,1-.9,3.7,8.93,8.93,0,0,1-2.2,2.9,9.63,9.63,0,0,1-3.6,2,16.69,16.69,0,0,1-5.2.8,16.91,16.91,0,0,1-4.5-.7,12.35,12.35,0,0,1-4-1.9,9.42,9.42,0,0,1-2.7-3.2,10.06,10.06,0,0,1-.9-3.7h6a3.77,3.77,0,0,0,.5,1.6,4.74,4.74,0,0,0,1.4,1.7,7.22,7.22,0,0,0,2,.9,9.86,9.86,0,0,0,2.4.3,10.87,10.87,0,0,0,1.8-.1,5.46,5.46,0,0,0,1.8-.6,5.26,5.26,0,0,0,1.4-1.1,2.88,2.88,0,0,0,.6-1.9,2.79,2.79,0,0,0-.8-2,5.61,5.61,0,0,0-2-1.2q-1.2-.45-2.7-.9c-1-.3-2.1-.5-3.1-.8a28.11,28.11,0,0,1-3.1-1,11.74,11.74,0,0,1-2.7-1.5,10.81,10.81,0,0,1-1.8-2.3,7.12,7.12,0,0,1-.7-3.4,8,8,0,0,1,.9-3.9,7.81,7.81,0,0,1,2.4-2.7,9.7,9.7,0,0,1,3.4-1.6,17.26,17.26,0,0,1,3.8-.5,20.24,20.24,0,0,1,4.3.5,9.88,9.88,0,0,1,3.6,1.6A7.76,7.76,0,0,1,24.14,6a13.82,13.82,0,0,1,1.1,2.8H19a6,6,0,0,0-.3-.7,4.36,4.36,0,0,0-1.3-1.4,4.84,4.84,0,0,0-1.8-.7,12.48,12.48,0,0,0-2.1-.2A7.72,7.72,0,0,0,12,6a3.51,3.51,0,0,0-1.4.6,3.18,3.18,0,0,0-1,1,2.77,2.77,0,0,0-.5,1.6,2.65,2.65,0,0,0,.3,1.4,2.35,2.35,0,0,0,1.3,1,15.2,15.2,0,0,0,2.6.9c1.2.3,2.6.7,4.3,1.1a19.37,19.37,0,0,1,2.2.6,9.18,9.18,0,0,1,2.8,1.4A9.9,9.9,0,0,1,25.14,18.1Z" transform="translate(-2.24 -1)" fill="#333f48"/><path d="M83.26,10h.6v5.4c-.3,0-.8-.1-1.1-.1h-.6a5.06,5.06,0,0,0-4.6,2.8,7.2,7.2,0,0,0-.7,3.4V31.6h-5.8V10h5.8v4.1a10.35,10.35,0,0,1,2.2-2.8A6.6,6.6,0,0,1,83.26,10Z" transform="translate(-2.24 -1)" fill="#333f48"/><rect x="92.77" y="8.8" width="5.9" height="22" fill="#333f48"/><path d="M121.33,11.7c1.1,1.4,1.4,2.9,1.4,5.4V31.7H117V17.4a3.24,3.24,0,0,0-3.4-3.4c-2.9,0-4.3,1.8-4.3,4.4V31.7H104V9.8h5.3v2a9,9,0,0,1,5.9-2.5C118.33,9.3,120,10.2,121.33,11.7Z" transform="translate(-2.24 -1)" fill="#333f48"/><rect x="92.77" y="1.9" width="6" height="4" fill="#333f48"/><path d="M33.14,8.8h-5V3.9h5Zm4,.1h-4v3.9h4Zm6,0h-4v3.9h4Zm-2,10v3.8c0,1.6-.4,4.3-3.9,4.3s-4.1-2.7-4.1-4.5V12.9h-5V23.7c0,4.9,3.7,8,9.4,8,5.1,0,8.6-2.9,8.6-7.8v-5Z" transform="translate(-2.24 -1)" fill="#0067b9"/><path d="M139.91,9.93s0,2.76,0,2.72a6.45,6.45,0,0,0-5.66-3.29,8.06,8.06,0,0,0-3.45.76,8.47,8.47,0,0,0-2.8,2.15,10.48,10.48,0,0,0-1.89,3.35,14.28,14.28,0,0,0-.71,4.58,16.82,16.82,0,0,0,.48,4,9.6,9.6,0,0,0,1.52,3.35,7.76,7.76,0,0,0,2.76,2.33A8.39,8.39,0,0,0,134.22,31a7.52,7.52,0,0,0,3.47-.76,4.54,4.54,0,0,0,2.22-2.09c0-.05,0,0,0,0V32a3.55,3.55,0,0,1-1.69,3.15,5.4,5.4,0,0,1-3.57,1.06,4.7,4.7,0,0,1-3.22-1,3.56,3.56,0,0,1-1.21-2.77h-4.85c.06,4.28,3.16,8.28,10,8.28,3.78,0,7.75-1.8,9.18-5.39a10,10,0,0,0,.73-3.89V9.93Zm-1.12,15a4.15,4.15,0,0,1-3.25,1.5,4,4,0,0,1-3.24-1.6A7.73,7.73,0,0,1,131,20.25c0-4.05,1.52-6.1,4.52-6.1S140,16.62,140,19.58C140,22.07,139.64,24,138.79,25Z" transform="translate(-2.24 -1)" fill="#333f48"/></svg>